<svg xmlns="http://www.w3.org/2000/svg" width="721" height="274" fill="none"><g clip-path="url(#a)"><path stroke="#fff" stroke-dasharray="8 8" stroke-linecap="round" stroke-opacity=".4" d="M720.905 171.318C536 182.12 461.57-30.136 308 144.12 133.618 341.992 62.806 153.751 0 39.26"/><g clip-path="url(#b)"><path fill="#fff" fill-opacity=".6" fill-rule="evenodd" d="M550.571 111.852a.751.751 0 0 1 .958.458l4.24 12.001a.754.754 0 0 1-.458.959l-12.001 4.239a.747.747 0 0 1-.958-.458.748.748 0 0 1 .457-.958l11.295-3.989-3.991-11.293a.735.735 0 0 1-.042-.29.737.737 0 0 1 .5-.669Z" clip-rule="evenodd"/></g><g filter="url(#c)" style="mix-blend-mode:plus-lighter"><path fill="#fff" fill-opacity=".4" d="m481.904 62.314.61-1.392 2.594 1.135c.518.227.976.27 1.375.13.413-.144.724-.456.934-.935.188-.43.205-.854.05-1.27-.155-.418-.492-.74-1.009-.967l-2.609-1.142.641-1.466 2.683 1.175c.644.282 1.153.662 1.526 1.14.378.468.6.984.667 1.55.081.559-.002 1.122-.251 1.688-.26.596-.624 1.054-1.09 1.374a2.92 2.92 0 0 1-1.578.532c-.595.03-1.216-.095-1.86-.378l-2.683-1.174Zm-3.063 3.846 4.491-10.26 1.686.738-4.492 10.26-1.685-.738Zm5.628 2.464-1.64-6.028 1.818.115 1.947 6.844-2.125-.93Zm6.208 2.893a3.983 3.983 0 0 1-1.65-1.299 4.14 4.14 0 0 1-.75-1.918 3.992 3.992 0 0 1 .331-2.073c.3-.684.731-1.229 1.293-1.635a4.044 4.044 0 0 1 1.905-.72 3.889 3.889 0 0 1 2.079.316c.694.304 1.249.739 1.664 1.305.416.567.663 1.199.742 1.897.093.693-.011 1.38-.31 2.065a3.896 3.896 0 0 1-1.313 1.643 4.013 4.013 0 0 1-1.904.756c-.698.079-1.394-.034-2.087-.337Zm.68-1.554c.4.175.791.242 1.171.198a2.035 2.035 0 0 0 1.052-.447c.317-.246.565-.574.745-.984.179-.41.25-.81.211-1.2a2.093 2.093 0 0 0-.398-1.048 2.153 2.153 0 0 0-.933-.74 2.212 2.212 0 0 0-1.177-.184 2.09 2.09 0 0 0-1.039.419 2.48 2.48 0 0 0-.724.975c-.18.41-.257.814-.232 1.209.034.4.162.758.384 1.076.236.313.549.555.94.726Zm7.407 5.095a3.503 3.503 0 0 1-1.518-1.241 3.873 3.873 0 0 1-.645-1.837 4.304 4.304 0 0 1 .375-2.054c.304-.694.722-1.25 1.255-1.67a3.847 3.847 0 0 1 1.794-.786 3.426 3.426 0 0 1 1.948.26c.537.234.96.56 1.267.973.322.409.517.867.586 1.375a2.804 2.804 0 0 1-.23 1.523l-.886 2.023a2.795 2.795 0 0 1-.963 1.203c-.41.297-.876.472-1.399.522-.518.041-1.046-.056-1.584-.291Zm.931-1.41c.596.262 1.163.27 1.7.029.546-.239.957-.67 1.231-1.296.183-.42.263-.827.238-1.222a1.956 1.956 0 0 0-.376-1.056c-.212-.314-.518-.559-.919-.734a2.13 2.13 0 0 0-1.163-.177c-.37.047-.713.194-1.03.44-.308.249-.553.584-.737 1.004-.184.42-.264.828-.239 1.223.035.4.158.756.37 1.07.226.309.534.549.925.72Zm1.288 2.206.828-1.89 1.029-1.593.466-1.823.757-1.73 1.612.707-3.08 7.035-1.612-.706Zm6.39 2.973a3.495 3.495 0 0 1-1.517-1.241 3.885 3.885 0 0 1-.646-1.837 4.293 4.293 0 0 1 .376-2.054c.303-.694.721-1.25 1.254-1.67a3.847 3.847 0 0 1 1.794-.786 3.423 3.423 0 0 1 1.948.26c.537.235.96.56 1.268.974a2.8 2.8 0 0 1 .586 1.374 2.805 2.805 0 0 1-.231 1.523l-.885 2.023a2.81 2.81 0 0 1-.963 1.203c-.41.298-.877.472-1.4.522-.518.041-1.046-.056-1.584-.291Zm.932-1.41c.4.176.786.24 1.156.193.384-.053.73-.205 1.037-.454.307-.25.553-.585.737-1.005.184-.42.263-.828.238-1.223a1.957 1.957 0 0 0-.376-1.056c-.212-.314-.518-.558-.919-.734a2.126 2.126 0 0 0-1.162-.177 2.1 2.1 0 0 0-1.031.44c-.307.25-.553.584-.737 1.004-.184.42-.263.828-.238 1.223.034.4.158.757.369 1.07.226.309.535.549.926.72Zm2.899 2.912-1.612-.706.828-1.89 1.029-1.593.466-1.822 2.297-5.248 1.613.706-4.621 10.553Zm6.008 2.63 4.364-9.966 1.612.706-4.363 9.966-1.613-.706Zm.753-6.307.642-1.466 4.983 2.182-.642 1.466-4.983-2.182Zm6.784 9.782a3.984 3.984 0 0 1-1.65-1.299 4.151 4.151 0 0 1-.75-1.918 3.992 3.992 0 0 1 .331-2.073c.3-.684.731-1.229 1.293-1.635a4.043 4.043 0 0 1 1.905-.72 3.89 3.89 0 0 1 2.079.316c.694.304 1.249.739 1.664 1.305.416.567.663 1.199.742 1.897.093.693-.011 1.38-.31 2.065a3.895 3.895 0 0 1-1.313 1.643 4.014 4.014 0 0 1-1.903.756c-.699.079-1.395-.034-2.088-.337Zm.68-1.554c.4.175.791.242 1.171.198a2.034 2.034 0 0 0 1.052-.448c.317-.245.565-.573.745-.983.179-.41.25-.81.211-1.2a2.093 2.093 0 0 0-.398-1.048 2.153 2.153 0 0 0-.933-.74 2.213 2.213 0 0 0-1.177-.184 2.09 2.09 0 0 0-1.039.419 2.48 2.48 0 0 0-.724.975c-.18.41-.257.814-.232 1.209.034.4.162.758.384 1.076.236.313.549.555.94.726Zm9.806 6.058.108-8.425 1.773.777-.232 6.116-.513-.225 4.454-4.268 1.788.783-6.381 5.678-.997-.436Zm-3.347 1.94 4.154-3.543.19 2.039-2.556 2.287-1.788-.783Zm11.603 1.761a3.981 3.981 0 0 1-1.649-1.298 4.13 4.13 0 0 1-.75-1.918 3.982 3.982 0 0 1 .331-2.073c.3-.684.73-1.23 1.292-1.635a4.052 4.052 0 0 1 1.905-.72 3.892 3.892 0 0 1 2.08.316c.694.304 1.248.739 1.664 1.305.416.566.663 1.198.742 1.897a3.818 3.818 0 0 1-.31 2.065 3.897 3.897 0 0 1-1.314 1.643c-.566.416-1.2.668-1.903.756-.698.079-1.394-.034-2.088-.338Zm.681-1.553c.4.175.791.241 1.17.198a2.031 2.031 0 0 0 1.052-.448c.317-.245.566-.573.745-.983.18-.41.25-.811.211-1.2a2.091 2.091 0 0 0-.397-1.048 2.164 2.164 0 0 0-.933-.74 2.217 2.217 0 0 0-1.178-.184 2.097 2.097 0 0 0-1.039.419c-.303.24-.544.565-.724.975a2.59 2.59 0 0 0-.232 1.208c.035.4.163.759.385 1.077.236.313.549.555.94.726Zm7.348 5.069c-.596-.261-1.07-.627-1.424-1.096a3.154 3.154 0 0 1-.61-1.56c-.048-.58.06-1.172.325-1.778l1.79-4.09 1.613.706-1.759 4.016c-.149.342-.224.659-.223.95.014.286.101.54.26.76.17.226.406.405.709.538.469.205.885.225 1.249.058.378-.172.681-.517.907-1.035l1.759-4.016 1.612.706-1.79 4.089c-.27.616-.639 1.1-1.108 1.454-.456.348-.97.553-1.545.616-.571.053-1.159-.053-1.765-.319Zm4.856 1.951 3.08-7.036 1.612.706-3.08 7.036-1.612-.706Zm3.326-3.208-.435-.522c.389-.89.899-1.522 1.529-1.898.645-.382 1.367-.397 2.169-.046.351.154.641.356.869.607a2.5 2.5 0 0 1 .522.962l-1.53.623a1.208 1.208 0 0 0-.297-.48 1.687 1.687 0 0 0-.504-.325c-.449-.196-.883-.217-1.3-.062-.417.155-.758.535-1.023 1.141Zm6.269 7.408 4.492-10.26 1.685.738-4.492 10.26-1.685-.738Zm1.158.507.673-1.539 5.365 2.349-.674 1.539-5.364-2.349Zm9.748 4.443c-.703-.308-1.27-.742-1.7-1.303a4.028 4.028 0 0 1-.756-1.903c-.078-.698.034-1.394.338-2.088.304-.694.736-1.244 1.298-1.65a3.927 3.927 0 0 1 1.882-.748 3.96 3.96 0 0 1 2.059.325c.655.287 1.165.691 1.531 1.212.375.525.589 1.114.641 1.765.062.656-.054 1.321-.349 1.996a2.71 2.71 0 0 1-.19.353 3.773 3.773 0 0 1-.232.37l-5.775-2.528.578-1.319 4.939 2.162-.832.265c.169-.439.244-.837.226-1.194a1.702 1.702 0 0 0-.335-.95c-.195-.272-.489-.493-.879-.664-.411-.18-.806-.248-1.186-.205-.38.043-.723.19-1.031.439-.303.24-.55.58-.743 1.02-.192.44-.273.864-.243 1.273.03.41.166.778.407 1.104.246.317.579.568.999.752.361.158.721.24 1.08.246.368.01.713-.061 1.035-.211l.571 1.49a3.591 3.591 0 0 1-1.644.363 4.318 4.318 0 0 1-1.689-.372Zm7.615 3.334a3.505 3.505 0 0 1-1.518-1.241 3.888 3.888 0 0 1-.646-1.837 4.292 4.292 0 0 1 .376-2.054c.303-.694.722-1.25 1.254-1.669a3.84 3.84 0 0 1 1.794-.787 3.428 3.428 0 0 1 1.948.259c.537.235.96.56 1.268.974.322.409.517.867.586 1.375a2.794 2.794 0 0 1-.231 1.523l-.885 2.023a2.804 2.804 0 0 1-.963 1.202 2.79 2.79 0 0 1-1.399.523c-.519.041-1.047-.056-1.584-.291Zm.931-1.409c.596.261 1.162.27 1.699.028.547-.238.957-.67 1.231-1.296.184-.42.263-.827.238-1.223a1.946 1.946 0 0 0-.376-1.055c-.212-.314-.518-.559-.918-.734a2.133 2.133 0 0 0-1.163-.177 2.1 2.1 0 0 0-1.031.439c-.307.25-.553.585-.737 1.005-.184.42-.263.828-.238 1.223.035.4.158.756.37 1.07.226.309.534.549.925.72Zm1.287 2.205.828-1.891 1.029-1.592.466-1.823.757-1.729 1.613.706-3.08 7.035-1.613-.706Zm3.509 1.536 3.08-7.035 1.612.706-3.08 7.035-1.612-.706Zm3.326-3.207-.435-.523c.389-.889.899-1.521 1.529-1.897.645-.382 1.367-.397 2.169-.047.351.154.641.357.869.608.228.251.402.572.522.962l-1.53.623a1.203 1.203 0 0 0-.297-.479 1.675 1.675 0 0 0-.504-.326c-.449-.197-.883-.217-1.3-.062-.417.155-.758.535-1.023 1.141Zm7.572 7.979 1.777-4.06c.206-.469.223-.922.053-1.357-.161-.431-.475-.75-.944-.955a1.834 1.834 0 0 0-.926-.161c-.304.03-.578.137-.821.322a1.825 1.825 0 0 0-.571.745l-.477-.627c.236-.538.56-.96.975-1.268a2.753 2.753 0 0 1 1.397-.559 3 3 0 0 1 1.567.25c.528.231.937.573 1.228 1.026.295.444.465.932.511 1.465a2.912 2.912 0 0 1-.225 1.473l-1.932 4.411-1.612-.705Zm-4.822-2.112 3.08-7.035 1.612.706-3.08 7.035-1.612-.706Zm11.384 5.159c-.703-.308-1.27-.742-1.7-1.303a4.003 4.003 0 0 1-.756-1.903c-.079-.698.034-1.394.337-2.088.304-.694.737-1.244 1.299-1.65a3.933 3.933 0 0 1 1.882-.748 3.962 3.962 0 0 1 2.059.325c.654.287 1.164.691 1.53 1.212.376.525.59 1.114.642 1.765.062.656-.054 1.321-.35 1.996a2.586 2.586 0 0 1-.189.353 3.846 3.846 0 0 1-.232.37l-5.775-2.528.577-1.319 4.94 2.162-.832.265c.169-.439.244-.836.226-1.194a1.703 1.703 0 0 0-.336-.95c-.195-.272-.488-.493-.879-.664-.41-.18-.805-.248-1.185-.205-.38.043-.724.19-1.031.44-.303.24-.551.579-.743 1.019-.193.44-.274.864-.243 1.273.03.41.166.778.407 1.105.245.317.578.567.998.751.362.158.722.24 1.08.246.369.01.714-.06 1.036-.211l.57 1.49a3.6 3.6 0 0 1-1.644.364 4.332 4.332 0 0 1-1.688-.373Zm4.732 1.897 3.08-7.035 1.613.706-3.08 7.035-1.613-.706Zm3.326-3.207-.435-.523c.389-.889.899-1.521 1.529-1.897.645-.382 1.368-.397 2.169-.047.352.154.641.357.869.608.228.251.402.572.522.962l-1.53.623a1.214 1.214 0 0 0-.297-.48 1.674 1.674 0 0 0-.503-.325c-.45-.197-.883-.218-1.3-.063-.418.156-.759.536-1.024 1.142Zm6.269 7.408 4.492-10.26 1.172.513-.334 2.16-3.644 8.325-1.686-.738Zm7.109 3.112-2.632-10.706 1.187-2.153 2.632 10.706-1.187 2.153Zm0 0 .276-2.027 3.702-8.457 1.686.738-4.492 10.259-1.172-.513Zm3.504 1.534 4.492-10.259 1.686.738-4.492 10.259-1.686-.738Zm3.083-3.89.674-1.539 5.218 2.285-.674 1.539-5.218-2.285Zm1.893-4.323.674-1.539 5.467 2.393-.674 1.539-5.467-2.393Zm5.684 12.88 4.363-9.967 1.686.738-4.364 9.967-1.685-.738Zm.476-10.184.674-1.539 8.369 3.664-.674 1.539-8.369-3.664Z"/></g></g><defs><clipPath id="a"><path fill="#fff" d="M0 0h721v274H0z"/></clipPath><clipPath id="b"><path fill="#fff" d="m545.348 106.621 21.654 10.348-10.348 21.655L535 128.275z"/></clipPath><filter id="c" width="195.368" height="107.677" x="467.558" y="45.607" color-interpolation-filters="sRGB" filterUnits="userSpaceOnUse"><feFlood flood-opacity="0" result="BackgroundImageFix"/><feGaussianBlur in="BackgroundImageFix" stdDeviation="5"/><feComposite in2="SourceAlpha" operator="in" result="effect1_backgroundBlur_1010_21529"/><feBlend in="SourceGraphic" in2="effect1_backgroundBlur_1010_21529" result="shape"/></filter></defs></svg>