<svg xmlns="http://www.w3.org/2000/svg" width="280" height="457" fill="none"><g clip-path="url(#a)"><g clip-path="url(#b)"><path fill="#fff" fill-opacity=".6" fill-rule="evenodd" d="M121.9 138.862a.76.76 0 0 1-.032.834.742.742 0 0 1-.215.199l-10.845 6.663a.761.761 0 0 1-.834-.032.742.742 0 0 1-.199-.215l-6.662-10.845a.75.75 0 1 1 1.279-.786l6.269 10.206 10.206-6.27a.734.734 0 0 1 .567-.091.754.754 0 0 1 .466.337Z" clip-rule="evenodd"/></g><g filter="url(#c)" style="mix-blend-mode:plus-lighter"><path fill="#fff" fill-opacity=".4" d="m47.072 144.159-.936-1.197 2.23-1.744c.446-.349.702-.731.768-1.149.069-.432-.058-.854-.38-1.266a1.638 1.638 0 0 0-1.095-.647c-.44-.062-.884.082-1.33.43l-2.243 1.754-.986-1.261 2.307-1.803c.555-.433 1.131-.701 1.729-.803a2.994 2.994 0 0 1 1.68.149c.53.194.987.535 1.368 1.023.4.512.63 1.05.691 1.612a2.923 2.923 0 0 1-.28 1.641c-.256.538-.662 1.024-1.216 1.458l-2.307 1.803Zm1.93 4.523-6.897-8.824 1.45-1.133 6.897 8.823-1.45 1.134Zm4.841-3.784-6.084-1.418.965-1.546 6.947 1.535-1.828 1.429Zm5.493-4.091c-.588.46-1.23.738-1.926.835a4.131 4.131 0 0 1-2.044-.25 3.974 3.974 0 0 1-1.668-1.276c-.46-.588-.735-1.226-.825-1.913a4.053 4.053 0 0 1 .27-2.019c.255-.66.677-1.22 1.266-1.68.596-.466 1.242-.748 1.938-.845a3.89 3.89 0 0 1 2.022.247 3.81 3.81 0 0 1 1.67 1.254c.46.588.734 1.233.823 1.936a4.011 4.011 0 0 1-.238 2.034c-.262.651-.692 1.21-1.288 1.677Zm-1.045-1.336c.345-.27.588-.582.73-.937.145-.37.18-.749.106-1.138a2.464 2.464 0 0 0-.513-1.123 2.367 2.367 0 0 0-.956-.755 2.094 2.094 0 0 0-1.11-.148c-.385.044-.75.201-1.095.47a2.214 2.214 0 0 0-.72.949 2.093 2.093 0 0 0-.125 1.113c.067.381.239.748.515 1.101s.594.612.953.778a2.18 2.18 0 0 0 1.13.172c.387-.059.749-.22 1.085-.482Zm8-4.102a3.501 3.501 0 0 1-1.812.747 3.87 3.87 0 0 1-1.924-.304 4.297 4.297 0 0 1-1.63-1.305c-.466-.597-.757-1.229-.873-1.896a3.846 3.846 0 0 1 .16-1.953 3.423 3.423 0 0 1 1.152-1.591c.462-.362.949-.579 1.46-.654a2.798 2.798 0 0 1 1.487.137c.48.18.89.489 1.232.926l1.36 1.74c.341.437.542.909.6 1.418.069.502 0 .996-.203 1.48-.21.476-.547.894-1.009 1.255Zm-.798-1.488c.513-.401.79-.895.832-1.482.05-.595-.136-1.161-.556-1.698a2.618 2.618 0 0 0-.963-.791 1.958 1.958 0 0 0-1.108-.17c-.377.038-.738.191-1.082.46a2.098 2.098 0 0 0-.81 2.055c.073.389.252.765.534 1.126.283.361.604.625.963.79.369.159.741.22 1.118.183.379-.052.736-.21 1.072-.473Zm2.553-.086-1.272-1.626-.913-1.662-1.383-1.275-1.162-1.488 1.386-1.084 4.73 6.051-1.386 1.084Zm5.65-4.214a3.502 3.502 0 0 1-1.813.747 3.881 3.881 0 0 1-1.923-.304 4.297 4.297 0 0 1-1.63-1.305c-.466-.597-.758-1.229-.873-1.897a3.844 3.844 0 0 1 .159-1.952 3.422 3.422 0 0 1 1.152-1.591c.463-.362.949-.58 1.46-.654a2.798 2.798 0 0 1 1.488.137c.479.18.89.489 1.231.926l1.36 1.739c.341.437.542.91.601 1.419.068.502 0 .995-.204 1.48-.21.475-.546.894-1.008 1.255Zm-.799-1.488c.345-.269.584-.578.718-.927.136-.363.167-.739.093-1.128a2.623 2.623 0 0 0-.535-1.126 2.615 2.615 0 0 0-.963-.79 1.958 1.958 0 0 0-1.108-.17c-.377.037-.737.191-1.082.46a2.133 2.133 0 0 0-.708.939 2.102 2.102 0 0 0-.102 1.116c.074.389.252.764.535 1.126.282.361.603.625.963.79.368.159.74.22 1.117.183.379-.053.736-.21 1.072-.473Zm3.94-1.17-1.387 1.084-1.271-1.626-.914-1.663-1.382-1.275-3.528-4.512 1.386-1.084 7.096 9.076Zm5.166-4.04-6.7-8.571 1.386-1.084 6.701 8.571-1.387 1.084Zm-5.194-3.656-.985-1.261 4.286-3.35.985 1.26-4.286 3.351Zm11.83-1.328a3.98 3.98 0 0 1-1.926.836 4.143 4.143 0 0 1-2.044-.25A3.99 3.99 0 0 1 83 117.209c-.46-.588-.735-1.226-.825-1.914a4.049 4.049 0 0 1 .27-2.018c.255-.66.677-1.22 1.266-1.68a4.017 4.017 0 0 1 1.938-.846 3.89 3.89 0 0 1 2.022.248c.653.247 1.21.665 1.67 1.253.46.588.734 1.234.823 1.936a4.009 4.009 0 0 1-.238 2.034c-.262.652-.692 1.211-1.288 1.677Zm-1.045-1.336a2.25 2.25 0 0 0 .73-.936c.145-.37.18-.749.106-1.138a2.464 2.464 0 0 0-.513-1.123 2.378 2.378 0 0 0-.956-.756 2.103 2.103 0 0 0-1.11-.147c-.385.044-.75.201-1.095.47a2.214 2.214 0 0 0-.72.949 2.093 2.093 0 0 0-.125 1.113c.067.381.239.747.515 1.1.276.353.593.613.953.778.368.159.745.217 1.13.173.387-.059.749-.22 1.085-.483Zm9.987-5.756-7.364-4.093 1.526-1.192 5.273 3.108-.442.344-1.642-5.945 1.538-1.203 1.968 8.311-.857.67Zm.119 3.868-1.147-5.338 1.885.8.8 3.335-1.538 1.203Zm7.058-9.377c-.588.46-1.23.739-1.926.836a4.144 4.144 0 0 1-2.044-.251 3.978 3.978 0 0 1-1.667-1.275c-.46-.589-.735-1.226-.826-1.914a4.048 4.048 0 0 1 .27-2.018 3.888 3.888 0 0 1 1.266-1.68c.597-.467 1.243-.749 1.939-.846a3.884 3.884 0 0 1 2.021.248c.654.247 1.21.665 1.67 1.253.46.588.734 1.234.823 1.936a4.007 4.007 0 0 1-.238 2.034c-.262.652-.691 1.211-1.288 1.677Zm-1.044-1.336a2.25 2.25 0 0 0 .73-.936c.144-.37.179-.75.105-1.139a2.454 2.454 0 0 0-.512-1.122 2.381 2.381 0 0 0-.956-.756c-.362-.15-.732-.2-1.111-.147-.385.044-.75.2-1.094.47a2.202 2.202 0 0 0-.721.949 2.098 2.098 0 0 0-.125 1.113c.068.38.239.747.515 1.1.276.353.594.612.954.778a2.18 2.18 0 0 0 1.13.173c.387-.059.748-.22 1.085-.483Zm7.949-4.062c-.512.401-1.059.646-1.64.734a3.15 3.15 0 0 1-1.662-.204c-.534-.232-1.004-.609-1.412-1.13l-2.749-3.517 1.387-1.084 2.7 3.454c.23.294.473.51.73.648.258.123.523.167.793.131.279-.042.548-.164.809-.368.403-.315.618-.673.644-1.072.028-.415-.132-.845-.48-1.29l-2.7-3.454 1.386-1.084 2.749 3.517c.414.53.666 1.085.754 1.665.09.566.027 1.117-.191 1.652-.224.528-.597.995-1.118 1.402Zm4.023-3.347-4.73-6.05 1.386-1.085 4.73 6.05-1.386 1.085Zm-1.245-4.45-.666.135c-.598-.765-.913-1.514-.945-2.247-.029-.748.3-1.392.989-1.93a2.52 2.52 0 0 1 .948-.477 2.503 2.503 0 0 1 1.094-.003l-.178 1.642a1.214 1.214 0 0 0-.563.034 1.671 1.671 0 0 0-.525.289c-.387.302-.611.674-.673 1.114-.061.441.112.922.519 1.443Zm9.496-2.001-6.898-8.824 1.45-1.133 6.898 8.824-1.45 1.133Zm.996-.779L123.898 88l4.942-3.863 1.034 1.324-4.941 3.862Zm-3.025-3.87-.995-1.273 4.512-3.527.996 1.273-4.513 3.528Zm-2.838-3.63-1.035-1.323 4.878-3.814 1.035 1.324-4.878 3.813Zm14.739.765a3.497 3.497 0 0 1-1.812.746 3.881 3.881 0 0 1-1.924-.304 4.299 4.299 0 0 1-1.629-1.305c-.467-.596-.758-1.229-.874-1.896a3.857 3.857 0 0 1 .16-1.953 3.424 3.424 0 0 1 1.152-1.591c.462-.361.949-.58 1.459-.653a2.791 2.791 0 0 1 1.488.136c.48.18.89.49 1.232.926l1.36 1.74c.341.437.542.91.601 1.418.068.503 0 .996-.204 1.48-.21.476-.546.894-1.009 1.256Zm-.798-1.489c.513-.4.79-.895.832-1.482.05-.594-.136-1.16-.556-1.698a2.62 2.62 0 0 0-.963-.79 1.959 1.959 0 0 0-1.108-.17c-.377.037-.737.19-1.082.46a2.133 2.133 0 0 0-.708.939c-.134.348-.168.72-.102 1.115.074.39.252.765.534 1.126.283.361.604.625.964.79.368.16.74.22 1.117.183.379-.052.736-.21 1.072-.473Zm2.553-.086-1.271-1.626-.914-1.662-1.382-1.275-1.163-1.488 1.386-1.084 4.73 6.051-1.386 1.084Zm3.017-2.359-4.73-6.05 1.387-1.085 4.73 6.051-1.387 1.084Zm-1.244-4.45-.666.135c-.598-.764-.913-1.513-.945-2.247-.03-.748.3-1.392.989-1.93.303-.237.618-.396.948-.477a2.503 2.503 0 0 1 1.094-.003l-.178 1.643a1.216 1.216 0 0 0-.563.033 1.674 1.674 0 0 0-.525.29c-.387.301-.611.673-.673 1.114-.061.44.112.921.519 1.442Zm10.617-2.877-2.73-3.492c-.315-.403-.705-.633-1.169-.69-.456-.063-.885.063-1.289.378a1.83 1.83 0 0 0-.58.738 1.593 1.593 0 0 0-.107.876c.046.302.175.588.385.856l-.779.122c-.361-.463-.579-.949-.653-1.46a2.749 2.749 0 0 1 .172-1.495 3 3 0 0 1 .963-1.26c.454-.355.95-.553 1.486-.594a3.087 3.087 0 0 1 1.532.245c.484.204.881.503 1.189.898l2.967 3.794-1.387 1.084Zm-4.147 3.242-4.73-6.05 1.386-1.085 4.73 6.051-1.386 1.084Zm9.944-7.57c-.605.472-1.256.765-1.954.877a4.009 4.009 0 0 1-2.034-.238 4.013 4.013 0 0 1-1.677-1.288c-.466-.597-.745-1.239-.836-1.926a3.934 3.934 0 0 1 .235-2.012 3.959 3.959 0 0 1 1.264-1.657c.563-.44 1.16-.698 1.792-.773a3.457 3.457 0 0 1 1.859.274c.607.257 1.137.675 1.59 1.255.079.1.153.212.221.334.071.108.143.235.216.38l-4.966 3.883-.887-1.135 4.248-3.32-.162.857c-.306-.356-.621-.611-.944-.765a1.702 1.702 0 0 0-.995-.156c-.332.043-.666.196-1.002.458-.353.276-.601.592-.743.947a1.96 1.96 0 0 0-.103 1.115c.068.381.249.76.545 1.139.295.378.631.65 1.005.818.375.168.763.223 1.165.166.396-.066.774-.24 1.136-.522.311-.243.554-.521.729-.834.183-.32.285-.657.306-1.012l1.582.206a3.597 3.597 0 0 1-.46 1.619 4.343 4.343 0 0 1-1.13 1.31Zm3.916-3.265-4.73-6.051 1.387-1.084 4.73 6.05-1.387 1.085Zm-1.244-4.45-.666.135c-.598-.765-.913-1.514-.945-2.247-.03-.749.3-1.392.989-1.93a2.52 2.52 0 0 1 .948-.477 2.503 2.503 0 0 1 1.094-.003l-.178 1.642a1.214 1.214 0 0 0-.563.034 1.671 1.671 0 0 0-.525.289c-.387.302-.611.674-.673 1.114-.061.441.112.922.519 1.443Zm9.496-2.001-6.898-8.824 1.009-.788 1.742 1.319 5.597 7.16-1.45 1.133Zm6.114-4.78-10.672-2.766-1.331-2.066 10.672 2.766 1.331 2.067Zm0 0-1.653-1.205-5.686-7.273 1.449-1.134 6.898 8.824-1.008.788Zm3.014-2.356-6.898-8.823 1.45-1.134 6.898 8.824-1.45 1.133Zm-1.961-4.56-1.034-1.323 4.487-3.508 1.035 1.323-4.488 3.508Zm-2.907-3.718-1.034-1.324 4.702-3.675 1.034 1.323-4.702 3.676Zm14.035 1.112-6.701-8.572 1.45-1.133 6.701 8.572-1.45 1.133Zm-8.737-5.254-1.035-1.323 7.198-5.627 1.035 1.324-7.198 5.626Z"/></g><path stroke="#fff" stroke-dasharray="8 8" stroke-linecap="round" stroke-opacity=".4" d="M0 428.082c53.09-8.296 181.294-42.244 122.254-175.259C55.211 101.781 195.211 63.543 280 59.082"/></g><defs><clipPath id="a"><path fill="#fff" d="M0 0h280v457H0z"/></clipPath><clipPath id="b"><path fill="#fff" d="m125.92 132.658-5.577 23.343L97 150.424l5.577-23.343z"/></clipPath><filter id="c" width="168.602" height="140.678" x="31.907" y="20.525" color-interpolation-filters="sRGB" filterUnits="userSpaceOnUse"><feFlood flood-opacity="0" result="BackgroundImageFix"/><feGaussianBlur in="BackgroundImageFix" stdDeviation="5"/><feComposite in2="SourceAlpha" operator="in" result="effect1_backgroundBlur_1010_21580"/><feBlend in="SourceGraphic" in2="effect1_backgroundBlur_1010_21580" result="shape"/></filter></defs></svg>